<?xml version="1.0" encoding="utf-8"?>
<!-- Generator: Adobe Illustrator 26.3.1, SVG Export Plug-In . SVG Version: 6.00 Build 0)  -->
<svg version="1.1" id="Ebene_1" xmlns="http://www.w3.org/2000/svg" xmlns:xlink="http://www.w3.org/1999/xlink" x="0px" y="0px"
	 viewBox="0 0 32 32" style="enable-background:new 0 0 32 32;" xml:space="preserve">
<style type="text/css">
	.st0{fill:#AFCC44;}
	.st1{fill:#274C21;}
</style>
<path class="st0" d="M26,32H6c-3.3,0-6-2.7-6-6L0,6c0-3.3,2.7-6,6-6l20,0c3.3,0,6,2.7,6,6v20C32,29.3,29.3,32,26,32z"/>
<path class="st1" d="M19.2,23.6c-2,0-3-1.4-3.3-1.7c-0.6,0.6-1.5,1.7-3.2,1.7c-1.9,0-3.5-1.4-3.5-3.8v-7.8c0-2.3,1.6-3.8,3.5-3.8
	s3.5,1.5,3.5,3.7c0.4-0.1,0.8-0.2,1.2-0.2c2,0,3.5,1.6,3.5,3.5c0,0.5-0.1,1-0.3,1.5c1.2,0.6,2.1,1.8,2.1,3.2
	C22.7,22.1,21.1,23.6,19.2,23.6z M16.8,21.1c0.5,0.9,1.3,1.4,2.4,1.4c1.3,0,2.3-1.1,2.3-2.3c0-1-0.7-1.9-1.6-2.2L16.8,21.1
	L16.8,21.1z M12.8,9.5c-1.2,0-2.3,0.8-2.3,2.6v7.8c0,1.8,1.2,2.6,2.3,2.6c0.9,0,1.4-0.5,2.3-1.3l0.4-0.4c-0.2-0.6-0.3-1.2-0.3-1.9
	v-6.8C15.1,10.3,14,9.5,12.8,9.5L12.8,9.5z M16.3,13.4v5.6c0,0.3,0,0.6,0.1,0.9l2.5-2.6c0.7-0.7,0.9-1.3,0.9-1.9
	c0-1.2-1-2.3-2.3-2.3C17,13.1,16.6,13.2,16.3,13.4L16.3,13.4z"/>
</svg>
