<?xml version="1.0" encoding="UTF-8" standalone="no"?>
<svg
   viewBox="98.07 163.58 148.07 145.35"
   version="1.1"
   id="svg16"
   sodipodi:docname="markup-cropped(1).svg"
   inkscape:version="1.2.2 (732a01da63, 2022-12-09)"
   xmlns:inkscape="http://www.inkscape.org/namespaces/inkscape"
   xmlns:sodipodi="http://sodipodi.sourceforge.net/DTD/sodipodi-0.dtd"
   xmlns="http://www.w3.org/2000/svg"
   xmlns:svg="http://www.w3.org/2000/svg">
  <defs
     id="defs20" />
  <sodipodi:namedview
     id="namedview18"
     pagecolor="#ffffff"
     bordercolor="#000000"
     borderopacity="0.25"
     inkscape:showpageshadow="2"
     inkscape:pageopacity="0.0"
     inkscape:pagecheckerboard="0"
     inkscape:deskcolor="#d1d1d1"
     showgrid="false"
     inkscape:zoom="5.5314755"
     inkscape:cx="34.439274"
     inkscape:cy="76.019499"
     inkscape:window-width="1920"
     inkscape:window-height="991"
     inkscape:window-x="-9"
     inkscape:window-y="-9"
     inkscape:window-maximized="1"
     inkscape:current-layer="svg16" />
  <path
     d="M98.091 303.353h3.12v-4.29a13.823 13.823 0 0 0 2.132-.78l3.796 5.07h3.692l-5.07-6.734c1.664-1.508 2.912-3.588 3.796-6.266h-3.198c-1.066 2.808-2.73 4.628-5.148 5.668v-10.868h-3.12v18.2Zm16.998.364c.728 0 1.352-.156 1.898-.364v-2.522c-.468.208-.832.286-1.222.286-.676 0-1.014-.364-1.014-1.586v-14.378h-2.964v14.534c0 2.99 1.3 4.03 3.302 4.03Zm9.107 0c2.548 0 4.42-1.066 5.72-2.47l-2.262-1.612c-.728.832-2.028 1.482-3.406 1.482-2.08 0-3.276-1.274-3.536-3.432h9.256c1.248-4.264-1.118-7.696-5.694-7.696-4.108 0-6.734 2.73-6.734 6.864s2.6 6.864 6.656 6.864Zm-3.432-8.138c.312-2.002 1.508-3.094 3.458-3.094 2.054 0 3.12 1.222 2.938 3.094h-6.396Zm11.095 7.774h2.964v-13h-2.964v13Zm1.508-14.872a1.876 1.876 0 0 0 1.898-1.898 1.876 1.876 0 0 0-1.898-1.898 1.876 1.876 0 0 0-1.898 1.898c0 1.066.832 1.898 1.898 1.898Zm3.651 14.872h2.964v-6.37c0-2.652 1.378-4.42 3.354-4.42 2.288 0 2.288 2.106 2.288 3.588v7.202h2.964v-7.28c0-1.95 0-6.084-4.186-6.084-1.976 0-3.562 1.04-4.42 2.756v-2.392h-2.964v13Zm24.62-3.094v-4.29c0-3.51-1.716-5.98-5.772-5.98-3.276 0-5.538 1.82-5.642 4.654h2.99c.156-1.404 1.196-2.08 2.6-2.08 1.976 0 2.86 1.482 2.86 3.406-.91-.208-1.95-.338-2.964-.338-3.666 0-5.954 1.586-5.954 4.212 0 2.262 1.716 3.874 4.472 3.874 2.418 0 4.186-1.248 5.044-3.406v.416c0 1.742.884 2.99 2.444 2.99.52 0 .936-.078 1.404-.286v-2.444c-.234.104-.494.13-.702.13-.442 0-.78-.234-.78-.858Zm-8.866-.494c0-1.196 1.04-1.976 3.172-1.976.936 0 1.976.156 2.834.442-.494 1.898-2.054 3.12-3.952 3.12-1.274 0-2.054-.546-2.054-1.586Zm11.352 3.588h2.964v-6.37c0-2.652 1.378-4.42 3.354-4.42 2.288 0 2.288 2.106 2.288 3.588v7.202h2.964v-7.28c0-1.95 0-6.084-4.186-6.084-1.976 0-3.562 1.04-4.42 2.756v-2.392h-2.964v13Zm12.998 0h10.946v-2.366h-7.54l7.28-8.736v-1.898H177.59v2.47h6.37l-6.838 8.164v2.366Zm17.931.364c2.548 0 4.42-1.066 5.72-2.47l-2.262-1.612c-.728.832-2.028 1.482-3.406 1.482-2.08 0-3.276-1.274-3.536-3.432h9.256c1.248-4.264-1.118-7.696-5.694-7.696-4.108 0-6.734 2.73-6.734 6.864s2.6 6.864 6.656 6.864Zm-3.432-8.138c.312-2.002 1.508-3.094 3.458-3.094 2.054 0 3.12 1.222 2.938 3.094h-6.396Zm11.096 7.774h2.964v-13h-2.964v13Zm1.508-14.872a1.876 1.876 0 0 0 1.898-1.898 1.876 1.876 0 0 0-1.898-1.898 1.876 1.876 0 0 0-1.898 1.898c0 1.066.832 1.898 1.898 1.898Zm9.5 20.436c3.458 0 5.902-1.768 5.902-4.368 0-4.446-6.76-3.12-6.76-4.368 0-.988 6.344-.286 6.344-5.408 0-.702-.156-1.378-.442-1.95 1.066-.91 1.56-2.574 1.3-4.082h-2.418c.182.832.26 1.924 0 2.652-1.04-.858-2.522-1.378-4.342-1.378-3.536 0-5.902 1.95-5.902 4.81 0 2.366 1.586 4.004 4.056 4.394-1.092.338-1.872.78-1.872 1.664 0 2.652 6.942 1.222 6.942 3.64 0 1.092-1.092 1.794-2.834 1.794-1.898 0-3.068-.806-3.302-1.898h-3.12c.52 2.418 2.73 4.498 6.448 4.498Zm-.416-11.752c-1.69 0-2.808-.91-2.808-2.288 0-1.378 1.144-2.288 2.808-2.288 1.716 0 2.808.91 2.808 2.288 0 1.378-1.118 2.288-2.808 2.288Zm13.707 6.552c2.548 0 4.42-1.066 5.72-2.47l-2.262-1.612c-.728.832-2.028 1.482-3.406 1.482-2.08 0-3.276-1.274-3.536-3.432h9.256c1.248-4.264-1.118-7.696-5.694-7.696-4.108 0-6.734 2.73-6.734 6.864s2.6 6.864 6.656 6.864Zm-3.432-8.138c.312-2.002 1.508-3.094 3.458-3.094 2.054 0 3.12 1.222 2.938 3.094h-6.396Zm10.965 7.774h2.964v-6.37c0-2.652 1.378-4.42 3.354-4.42 2.288 0 2.288 2.106 2.288 3.588v7.202h2.964v-7.28c0-1.95 0-6.084-4.186-6.084-1.976 0-3.562 1.04-4.42 2.756v-2.392h-2.964v13Z"
     id="path12"
     style="fill:#173c00;fill-opacity:1" />
  <path
     fill-rule="evenodd"
     d="M137.586 176.596c-3.016 2.939-5.238 7.515-5.238 14.098V246.6c0 6.583 2.222 11.159 5.238 14.098 3.069 2.989 7.221 4.537 11.457 4.537 6.424 0 9.996-3.125 16.124-9.343l2.613-2.652c-1.331-4.02-2.041-8.522-2.041-13.417v-49.129c0-6.583-2.222-11.159-5.238-14.098-3.069-2.989-7.221-4.537-11.458-4.537-4.236 0-8.388 1.548-11.457 4.537Zm34.085 84.675-.601.61c-6.027 6.115-11.813 11.825-22.027 11.825-6.197 0-12.48-2.263-17.238-6.898-4.81-4.685-7.805-11.544-7.805-20.208v-55.906c0-8.664 2.995-15.523 7.805-20.208 4.758-4.635 11.041-6.898 17.238-6.898 6.198 0 12.481 2.263 17.239 6.898 4.764 4.64 7.748 11.413 7.804 19.961a24.777 24.777 0 0 1 8.345-1.447c6.39 0 12.788 2.471 17.675 7.409 4.885 4.937 7.368 11.407 7.368 18.003 0 3.469-.574 6.766-2.045 10.058a23.7 23.7 0 0 1-.282.606C213.9 229.037 220 237.94 220 248.294c0 14.033-11.214 25.412-25.043 25.412-8.053 0-15.453-3.227-20.804-9.229-.892-1-1.721-2.07-2.482-3.206Zm28.562-29.056c6.635 2.239 11.419 8.596 11.419 16.079 0 9.355-7.476 16.941-16.695 16.941-5.781 0-10.902-2.279-14.614-6.441a21.556 21.556 0 0 1-2.621-3.663l20.958-21.266a47.85 47.85 0 0 0 1.553-1.65Zm-26.146-32.484a16.494 16.494 0 0 1 8.344-2.261c4.27 0 8.523 1.646 11.784 4.941 3.262 3.297 4.911 7.585 4.911 12.001 0 2.459-.394 4.533-1.3 6.559-.922 2.064-2.47 4.287-5.049 6.904l-18.148 18.416a37.247 37.247 0 0 1-.542-6.468v-40.092Z"
     clip-rule="evenodd"
     id="path14"
     style="fill:#173c00;fill-opacity:1" />
</svg>
